<svg id="icon_apple_tv" xmlns="http://www.w3.org/2000/svg" width="62.5" height="30" viewBox="0 0 62.5 30">
  <rect id="사각형_170" data-name="사각형 170" width="62.5" height="30" fill="none" opacity="0"/>
  <path id="패스_2" data-name="패스 2" d="M12.749,31.338a4.828,4.828,0,0,0,1.1-3.428,4.713,4.713,0,0,0-3.137,1.639,4.522,4.522,0,0,0-1.125,3.289,3.925,3.925,0,0,0,3.162-1.5m1.025,1.726c-1.75-.1-3.225,1-4.062,1s-2.112-.945-3.487-.92a5.145,5.145,0,0,0-4.375,2.684c-1.875,3.25-.5,8.091,1.325,10.738.888,1.257,1.95,2.756,3.363,2.708S8.387,48.4,10,48.4s2.087.875,3.487.844,2.375-1.26,3.25-2.625A11.7,11.7,0,0,0,18.2,43.591a4.765,4.765,0,0,1-2.838-4.335,4.875,4.875,0,0,1,2.287-4.07,4.99,4.99,0,0,0-3.875-2.125m11.163-2.52V34.11h2.85v2.356h-2.85V44.91c0,1.26.563,1.9,1.813,1.9a9.476,9.476,0,0,0,1.025-.075v2.375a9.733,9.733,0,0,1-1.688.125c-2.95,0-4.087-1.146-4.087-4.02V36.522H19.762V34.161h2.175V30.544ZM37.749,49.107H34.624l-5.25-14.946h3.112l3.688,12.01h.075l3.688-12.01h3.05Zm13.725,0h-2.7V42.982h-5.8v-2.7h5.787V34.161h2.7v6.125h5.8v2.7H51.474Z" transform="translate(2.143 -24.16)" fill="#1d1d1f"/>
</svg>
